<svg width="120" height="120" viewBox="0 0 120 120" fill="none" xmlns="http://www.w3.org/2000/svg">
<rect width="120" height="120" fill="#DCD9D2"/>
<path d="M9.3877 70.8547C9.3877 69.8029 9.64013 69.277 10.145 69.277C10.9865 69.277 12.2907 70.3288 14.0578 72.4324C14.9413 73.4842 15.7617 74.3677 16.519 75.083C17.3184 75.7982 18.1178 76.3662 18.9171 76.7869C19.7165 77.2076 20.5369 77.5021 21.3784 77.6704C22.2619 77.8387 23.2086 77.9228 24.2183 77.9228C26.2799 77.9228 27.9838 77.3338 29.3301 76.1558C30.7185 74.9778 31.4127 73.379 31.4127 71.3595C31.4127 69.3821 30.3188 67.6361 28.1311 66.1215C27.2055 65.4484 24.8915 64.2914 21.1891 62.6506C17.4867 61.0097 14.8571 59.3689 13.3005 57.7281C11.2389 55.6665 10.2081 53.058 10.2081 49.9026C10.2081 46.8313 11.4072 44.1808 13.8053 41.9509C16.2035 39.679 19.5693 38.5431 23.9028 38.5431C24.4918 38.5431 25.1649 38.6062 25.9222 38.7324C26.7216 38.8165 27.5841 38.9638 28.5097 39.1741C30.3188 39.5528 31.6441 39.7421 32.4856 39.7421L33.3691 39.679L34.1895 39.6159C35.2413 39.6159 35.9566 40.2049 36.3352 41.3829C36.7139 42.561 36.9032 44.4332 36.9032 46.9996C36.9032 48.4721 36.5456 49.2084 35.8303 49.2084C35.4096 49.2084 34.3788 48.388 32.738 46.7472C31.9386 45.9057 31.1813 45.1905 30.4661 44.6015C29.7509 43.9704 29.0987 43.4866 28.5097 43.15C27.2896 42.3927 25.7119 42.014 23.7765 42.014C22.8089 42.014 21.9253 42.1823 21.126 42.5189C20.3266 42.8134 19.6324 43.2341 19.0434 43.7811C18.4543 44.328 17.9916 44.9381 17.655 45.6112C17.3184 46.2844 17.1501 46.9786 17.1501 47.6938C17.1501 49.6291 18.1388 51.3331 20.1162 52.8056C20.9156 53.3946 23.2506 54.5306 27.1213 56.2135C31.0761 57.9384 33.7057 59.4531 35.0099 60.7573C36.3983 62.0615 37.345 63.3868 37.8498 64.7331C38.3968 66.0795 38.6703 67.2364 38.6703 68.2041V69.4032C38.6703 70.7074 38.3547 72.1379 37.7236 73.6946C37.1346 75.2092 36.1038 76.5976 34.6313 77.8597C32.0228 80.2579 28.4256 81.4569 23.8396 81.4569C23.2086 81.4569 22.4512 81.3938 21.5677 81.2676C20.6842 81.1414 19.6534 80.9731 18.4754 80.7627C16.0352 80.2999 14.6468 80.0685 14.3102 80.0685L12.5431 80.1948C11.4493 80.1948 10.6499 79.5847 10.145 78.3646C9.64013 77.1024 9.3877 74.9567 9.3877 71.9275V70.8547Z" fill="black"/>
<path d="M50.574 65.2561C49.3118 65.2561 48.281 64.8143 47.4817 63.9308C46.7244 63.0052 46.3457 62.0165 46.3457 60.9647V60.3336C46.3457 59.1977 46.7244 58.251 47.4817 57.4937C48.281 56.6944 49.3329 56.2947 50.6371 56.2947H50.8264C52.1728 56.2947 53.2667 56.7154 54.1081 57.5568C54.9496 58.3983 55.3703 59.408 55.3703 60.5861V61.4696C55.3703 62.5214 55.0127 63.4049 54.2974 64.1201C53.5822 64.8354 52.8249 65.193 52.0255 65.193L51.2051 65.2561H50.574Z" fill="black"/>
<path d="M63.7229 52.9498C63.7229 49.9206 63.4915 47.5856 63.0287 45.9448C62.9446 45.7344 62.7763 45.4189 62.5239 44.9982C62.3135 44.5354 61.9979 44.0095 61.5772 43.4204C60.8199 42.1583 60.4413 41.0854 60.4413 40.2019C60.4413 39.3605 61.6824 38.9397 64.1647 38.9397C66.6049 38.9397 68.6665 39.108 70.3494 39.4446C72.0743 39.7391 73.3365 40.4754 74.1359 41.6534C74.5566 42.2424 75.1246 43.3784 75.8398 45.0613C76.5972 46.7442 77.5227 48.995 78.6166 51.8139L82.6556 62.0375L84.044 65.5716L84.8013 66.8968C85.4745 66.8968 87.4729 62.8369 90.7967 54.7169C94.1204 46.5969 96.1399 42.0531 96.8551 41.0854C97.9911 39.6129 99.7792 38.8766 102.219 38.8766H103.986C106.3 38.8766 107.836 39.0449 108.593 39.3815C109.393 39.676 109.792 40.1178 109.792 40.7068C109.792 40.833 109.309 41.7375 108.341 43.4204C107.331 45.1454 106.721 46.4286 106.511 47.2701C106.3 48.2377 106.195 52.1505 106.195 59.0083C106.195 65.9081 106.49 70.6623 107.079 73.2708C107.415 74.6171 107.815 75.6689 108.278 76.4262L109.161 77.6253L110.045 78.4457L110.613 79.203V79.771L110.108 80.339C109.182 80.8018 107.226 81.0332 104.239 81.0332C98.7694 81.0332 96.0347 80.5283 96.0347 79.5186L96.2871 78.635L97.4231 76.5525C97.7176 75.8793 98.0121 74.0492 98.3066 71.062C98.6432 68.0328 98.8115 64.1201 98.8115 59.3238C98.8115 56.9257 98.7694 54.9483 98.6853 53.3916C98.6432 51.7928 98.5801 50.5938 98.496 49.7944L98.1804 48.5322C97.2548 48.5322 94.3728 54.8431 89.5345 67.4648C88.5668 69.9892 87.7885 71.9876 87.1995 73.4601C86.6104 74.8906 86.2107 75.8162 86.0004 76.2369C85.0327 78.3826 84.1071 79.4555 83.2236 79.4555C82.3821 79.4555 81.73 79.161 81.2672 78.5719C80.8044 77.9409 78.7849 72.8922 75.2088 63.4259C71.5905 53.9596 69.3817 49.2264 68.5823 49.2264C67.9512 49.2264 67.6357 51.0776 67.6357 54.78L67.7619 58.5034C67.804 58.9241 67.825 59.7445 67.825 60.9646C67.825 62.1427 67.825 63.7625 67.825 65.824C67.825 69.905 68.1826 72.9763 68.8979 75.0379C69.571 77.0573 69.9076 78.4036 69.9076 79.0768L69.6552 79.7079C68.7296 80.5493 66.5628 80.9701 63.1549 80.9701C61.2617 80.9701 60.0205 80.6756 59.4315 80.0866L59.2422 79.4555C59.2422 79.203 59.8312 78.3616 61.0092 76.9311C62.1873 75.5007 62.9025 74.0071 63.1549 72.4504C63.5336 69.7578 63.7229 63.2576 63.7229 52.9498Z" fill="black"/>
</svg>
